<svg xmlns="http://www.w3.org/2000/svg" viewBox="0 0 200 40">
  <path d="M10,8h30v4H14v8h24v4H14v8h26v4H10V8z" fill="currentColor"/>
  <path d="M48,8h30v4H52v8h24v4H52v8h26v4H48V8z" fill="currentColor"/>
  <path d="M86,8h12c8,0,14,6,14,14s-6,14-14,14H86V8z M98,32c6,0,10-4,10-10s-4-10-10-10h-8v20H98z" fill="currentColor"/>
  <path d="M120,8h4v28h22v4h-26V8z" fill="currentColor"/>
  <path d="M154,8h12c8,0,14,6,14,14s-6,14-14,14h-12V8z M166,32c6,0,10-4,10-10s-4-10-10-10h-8v20H166z" fill="currentColor"/>
  <circle cx="190" cy="15" r="4" fill="#3B82F6"/>
</svg>